<svg xmlns="http://www.w3.org/2000/svg" version="1.1" xmlns:xlink="http://www.w3.org/1999/xlink" width="422" height="417"><svg xmlns="http://www.w3.org/2000/svg" version="1.1" xmlns:xlink="http://www.w3.org/1999/xlink" width="422" height="417"><svg width="422" height="417" viewBox="0 0 422 417" fill="none" xmlns="http://www.w3.org/2000/svg">
<path d="M422 208.053C422 322.958 327.532 416.106 211 416.106C94.4679 416.106 0 322.958 0 208.053C0 93.1485 94.4679 0 211 0C327.532 0 422 93.1485 422 208.053Z" fill="black"></path>
<path d="M177.63 289.274C169.657 289.274 162.365 287.913 155.753 285.191C149.141 282.274 143.793 277.801 139.71 271.773C135.626 265.744 133.584 257.868 133.584 248.145C133.584 239.394 135.237 232.199 138.543 226.56C141.849 220.92 146.419 216.35 152.253 212.85C158.281 209.35 165.087 206.627 172.671 204.682C180.45 202.738 188.618 201.085 197.174 199.724C208.258 197.779 216.426 196.321 221.676 195.348C226.927 194.181 230.33 192.723 231.886 190.973C233.636 189.223 234.511 186.695 234.511 183.389C234.511 173.86 231.302 166.567 224.885 161.511C218.662 156.455 210.884 153.927 201.549 153.927C195.91 153.927 190.27 154.997 184.631 157.136C178.992 159.275 174.227 162.873 170.338 167.929C166.643 172.79 164.504 179.402 163.921 187.764L139.126 184.264C139.904 174.152 142.238 165.692 146.127 158.886C150.016 152.08 154.975 146.635 161.004 142.551C167.032 138.467 173.547 135.55 180.547 133.8C187.548 131.856 194.646 130.883 201.841 130.883C213.314 130.883 223.427 133.022 232.178 137.301C240.928 141.579 247.832 148.191 252.888 157.136C258.138 165.887 260.764 176.971 260.764 190.389V218.976C260.764 226.365 260.764 233.755 260.764 241.145C260.958 248.534 261.055 255.924 261.055 263.313C261.25 270.703 261.347 278.093 261.347 285.482H236.261C237.039 276.731 237.623 268.175 238.011 259.813C238.595 251.257 239.178 242.311 239.762 232.977H237.428C235.872 243.673 232.469 253.299 227.219 261.855C221.968 270.217 215.162 276.926 206.8 281.982C198.438 286.844 188.715 289.274 177.63 289.274ZM184.923 267.397C190.951 267.397 196.882 266.133 202.716 263.605C208.55 261.077 213.801 257.382 218.468 252.521C223.135 247.659 226.927 241.825 229.844 235.019C232.761 228.018 234.317 220.142 234.511 211.391L234.803 204.974L242.387 202.349C240.248 205.46 236.747 207.891 231.886 209.641C227.024 211.197 221.482 212.461 215.259 213.433C209.036 214.211 202.716 215.184 196.299 216.35C190.076 217.323 184.242 218.878 178.797 221.017C173.352 223.157 168.977 226.074 165.671 229.768C162.365 233.463 160.712 238.616 160.712 245.228C160.712 251.84 162.754 257.188 166.838 261.272C171.116 265.355 177.144 267.397 184.923 267.397ZM296.588 288.983C290.948 288.983 286.573 287.621 283.461 284.899C280.35 282.176 278.794 278.093 278.794 272.648C278.794 267.008 280.35 262.925 283.461 260.396C286.573 257.674 290.948 256.313 296.588 256.313C302.616 256.313 307.089 257.674 310.006 260.396C313.117 262.925 314.673 267.008 314.673 272.648C314.673 283.538 308.645 288.983 296.588 288.983Z" fill="white"></path>
</svg></svg><style>@media (prefers-color-scheme: light) { :root { filter: none; } }
@media (prefers-color-scheme: dark) { :root { filter: none; } }
</style></svg>